# xmcd
#
# Track frame offsets:
#	183
#	15270
#	23150
#	38643
#	51450
#	68668
#	88295
#	105033
#	123635
#	135203
#	147093
#	156975
#	169925
#	180390
#	191980
#	209613
#	224713
#	245730
#	256508
#	265728
#	287738
#
# Disc length: 4103 seconds
# Revision: 0
# Processed by: cddbd v1.5.2PL0 Copyright (c) Steve Scherf et al.
# Submitted via: dBpowerAMP V12.0
#
DISCID=30100515
DTITLE=Robin Richmond - The Hammond Organist Entertains
DYEAR=1998
DGENRE=Organ
TTITLE0=Medley: Robin's Nest - Sugar (That Sugar Baby O' Mine)
TTITLE1=Young And Healthy
TTITLE2=Medley: Dreaming - Valse Bleu
TTITLE3=What A Difference A Day Makes
TTITLE4=Medley: Something's Gotta Give - Ain't She Sweet
TTITLE5=Medley: I'm In Love For The Very First Time - From This Moment On
TTITLE6=Medley: S'posin' - Maybe
TTITLE7=Medley: Lazy River - I Hadn't Anyone Till You
TTITLE8=That Everloving Rag
TTITLE9=The Velvet Glove
TTITLE10=Ecstasy
TTITLE11=Medley: This Year's Kisses - Kiss The Boys Goodbye
TTITLE12=Windmill Waltz
TTITLE13=Organ-Ising The Blues
TTITLE14=Medley: Sunrise Serenade - Moonlight Cocktail
TTITLE15=Medley: Choo Choo Samba - Brazil
TTITLE16=Medley: Taboo - Nightingale
TTITLE17=Some Like It Hot
TTITLE18=Park Plaza
TTITLE19=Medley: Love Is Here To Stay - Got It Bad And That Ain't Good
TTITLE20=Medley: Carolina Moon - Ramona
EXTD=
EXTT0=
EXTT1=
EXTT2=
EXTT3=
EXTT4=
EXTT5=
EXTT6=
EXTT7=
EXTT8=
EXTT9=
EXTT10=
EXTT11=
EXTT12=
EXTT13=
EXTT14=
EXTT15=
EXTT16=
EXTT17=
EXTT18=
EXTT19=
EXTT20=
PLAYORDER=
